<svg xmlns="http://www.w3.org/2000/svg" viewBox="0 0 400 300">
  <defs><linearGradient id="r" x1="0" y1="0" x2="0" y2="1">
    <stop offset="0" stop-color="#F07A22"/><stop offset="1" stop-color="#CD0C24"/>
  </linearGradient></defs>
  <rect width="400" height="300" fill="#14202B"/>
  <circle cx="90" cy="70" r="120" fill="#CD0C24" opacity="0.10"/>
  <g fill="#F5F8FA">
    <rect x="34" y="178" width="44" height="102" rx="6"/>
    <rect x="84" y="178" width="44" height="102" rx="6"/>
    <rect x="134" y="178" width="44" height="102" rx="6"/>
    <rect x="184" y="178" width="44" height="102" rx="6"/>
    <rect x="234" y="178" width="44" height="102" rx="6"/>
    <rect x="284" y="178" width="44" height="102" rx="6"/>
    <rect x="334" y="178" width="44" height="102" rx="6"/>
  </g>
  <g fill="#14202B">
    <rect x="66" y="178" width="28" height="60" rx="4"/>
    <rect x="116" y="178" width="28" height="60" rx="4"/>
    <rect x="216" y="178" width="28" height="60" rx="4"/>
    <rect x="266" y="178" width="28" height="60" rx="4"/>
    <rect x="316" y="178" width="28" height="60" rx="4"/>
  </g>
  <path d="M206 46c-27 0-42 21-42 40 0 30 42 66 42 66s42-36 42-66c0-19-15-40-42-40z" fill="url(#r)"/>
  <circle cx="206" cy="88" r="15" fill="#14202B"/>
</svg>
